<?xml version="1.0" standalone="no"?>
<!DOCTYPE svg PUBLIC "-//W3C//DTD SVG 20010904//EN"
 "http://www.w3.org/TR/2001/REC-SVG-20010904/DTD/svg10.dtd">
<svg version="1.0" xmlns="http://www.w3.org/2000/svg"
 width="997.000000pt" height="997.000000pt" viewBox="0 0 997.000000 997.000000"
 preserveAspectRatio="xMidYMid meet">
<metadata>
Created by potrace 1.11, written by Peter Selinger 2001-2013
</metadata>
<g transform="translate(0.000000,997.000000) scale(0.100000,-0.100000)"
fill="#000000" stroke="none">
<path d="M5913 9034 c-84 -30 -132 -71 -173 -149 -30 -59 -32 -75 -35 -255 -3
-189 7 -250 59 -372 29 -68 36 -100 41 -178 9 -138 47 -346 105 -585 49 -199
52 -218 56 -367 2 -86 10 -190 19 -230 8 -42 12 -86 8 -103 -8 -31 -7 -140 2
-178 2 -12 8 -38 13 -57 5 -19 10 -123 11 -230 1 -108 8 -226 16 -265 7 -41
13 -154 14 -272 1 -111 4 -212 7 -225 3 -13 7 -35 9 -50 2 -15 18 -74 35 -130
27 -92 31 -121 36 -268 6 -215 12 -325 19 -380 8 -60 8 -278 0 -310 -7 -27
-13 -54 -19 -85 -2 -11 -10 -40 -17 -65 -23 -83 -27 -105 -34 -220 -15 -222
-16 -229 -40 -340 -3 -14 -8 -41 -11 -60 -3 -19 -7 -44 -9 -55 -1 -12 -12 -52
-23 -90 -11 -39 -32 -119 -46 -180 -30 -122 -75 -221 -141 -310 -25 -33 -45
-65 -45 -72 0 -7 -4 -13 -8 -13 -5 0 -14 -16 -22 -35 -8 -19 -17 -35 -22 -35
-4 0 -8 -5 -8 -11 0 -6 -9 -24 -21 -40 -11 -16 -17 -29 -14 -29 4 0 -1 -7 -9
-16 -21 -20 -59 -23 -368 -26 -222 -2 -259 0 -275 14 -23 20 -86 53 -95 50 -5
-1 -8 3 -8 9 0 5 -4 8 -9 4 -5 -3 -12 -1 -15 4 -6 8 -50 20 -111 27 -50 7 -64
14 -87 47 -12 18 -33 43 -45 57 -13 14 -23 30 -23 37 0 7 -4 13 -8 13 -4 0
-16 14 -26 30 -9 17 -26 38 -36 48 -10 9 -26 33 -37 53 -16 31 -65 98 -98 135
-20 23 -191 208 -229 248 -49 51 -81 102 -104 164 -18 46 -70 131 -99 160 -39
40 -65 86 -88 156 -14 42 -36 99 -50 126 -29 58 -71 184 -85 259 -8 41 -23
310 -22 381 0 8 -7 49 -16 90 -16 72 -58 152 -101 190 -73 65 -126 83 -229 81
-111 -3 -219 -76 -264 -180 -22 -50 -27 -137 -15 -231 5 -30 10 -118 12 -195
2 -78 11 -181 20 -230 17 -102 86 -327 120 -395 12 -25 35 -85 50 -135 15 -49
33 -97 40 -105 6 -8 23 -35 37 -60 15 -25 34 -55 45 -66 45 -52 69 -90 89
-140 12 -29 39 -78 61 -109 21 -31 43 -64 48 -73 9 -15 27 -37 72 -88 10 -12
68 -75 130 -140 61 -65 125 -137 141 -159 16 -22 41 -50 56 -63 15 -13 41 -53
57 -90 17 -37 33 -69 37 -72 4 -3 27 -30 52 -60 56 -70 191 -210 202 -210 5 0
26 -11 47 -24 21 -14 42 -22 45 -19 3 4 6 1 6 -6 0 -7 5 -9 10 -6 6 3 10 2 10
-4 0 -9 54 -21 116 -25 18 -2 44 -10 56 -20 59 -43 148 -86 198 -95 50 -9 689
-7 785 2 138 14 233 42 334 99 57 33 161 133 161 155 0 7 5 13 10 13 6 0 10 6
10 14 0 7 7 19 15 26 8 7 12 16 9 21 -3 5 -1 9 3 9 5 0 20 25 33 55 13 30 27
55 30 55 3 0 18 25 35 55 16 30 33 55 37 55 4 0 8 6 8 14 0 8 3 16 8 18 15 7
51 67 99 168 68 143 79 176 118 351 2 11 7 29 10 39 3 10 8 27 10 37 2 10 11
45 20 78 21 77 24 92 30 140 3 22 7 47 10 55 2 8 6 26 9 40 3 14 10 50 15 80
11 53 16 110 25 261 4 64 10 84 35 121 29 42 65 160 54 172 -3 3 -7 124 -8
270 -2 146 -6 270 -11 277 -4 6 -8 87 -10 178 -5 325 -20 446 -70 582 -12 33
-17 88 -20 224 -3 197 -10 308 -24 370 -5 22 -9 110 -10 195 0 85 -4 184 -7
220 -10 90 -8 132 8 185 5 16 -11 114 -31 195 -13 51 -20 115 -21 200 -2 165
-10 217 -68 460 -48 198 -71 303 -77 345 -1 11 -4 36 -7 55 -3 19 -8 76 -12
125 -10 149 -27 223 -73 323 -23 50 -26 71 -27 172 -1 63 -5 135 -10 160 -23
135 -148 244 -288 254 -32 2 -71 -5 -114 -20z"/>
</g>
</svg>
