<?xml version="1.0" standalone="no"?>
<!DOCTYPE svg PUBLIC "-//W3C//DTD SVG 20010904//EN"
 "http://www.w3.org/TR/2001/REC-SVG-20010904/DTD/svg10.dtd">
<svg version="1.0" xmlns="http://www.w3.org/2000/svg"
 width="1024.000000pt" height="1024.000000pt" viewBox="0 0 1024.000000 1024.000000"
 preserveAspectRatio="xMidYMid meet">
<metadata>
Created by potrace 1.11, written by Peter Selinger 2001-2013
</metadata>
<g transform="translate(0.000000,1024.000000) scale(0.100000,-0.100000)"
fill="#000000" stroke="none">
<path d="M2545 7699 c-1397 -1237 -2539 -2251 -2538 -2254 4 -11 525 -595 532
-595 3 0 1036 911 2295 2025 l2289 2024 76 -68 c42 -37 551 -488 1131 -1001
580 -513 1574 -1393 2208 -1954 635 -562 1159 -1022 1165 -1023 7 -1 76 71
153 160 78 89 196 223 262 298 l121 136 -2542 2249 c-2323 2056 -2544 2249
-2577 2250 -33 1 -180 -127 -2575 -2247z"/>
<path d="M1530 8354 l0 -957 30 24 c114 92 1240 1118 1244 1134 3 11 7 185 9
388 l3 367 -643 0 -643 0 0 -956z"/>
<path d="M3329 6632 l-1794 -1587 -3 -2303 c-2 -2263 -2 -2303 17 -2341 26
-50 81 -97 128 -110 26 -7 411 -11 1170 -11 l1133 0 2 1023 3 1022 22 40 c24
46 54 75 103 101 33 18 77 19 1010 19 933 0 977 -1 1010 -19 49 -26 79 -55
103 -101 l22 -40 3 -1022 2 -1023 1133 0 c759 0 1144 4 1170 11 47 13 102 60
128 110 19 37 19 81 19 2341 l-1 2303 -1655 1465 c-911 806 -1718 1520 -1794
1587 l-137 122 -1794 -1587z"/>
</g>
</svg>
